<mxfile host="app.diagrams.net" modified="2021-09-06T08:33:21.046Z" agent="5.0 (Macintosh; Intel Mac OS X 10_13_6) AppleWebKit/537.36 (KHTML, like Gecko) Chrome/93.0.4577.63 Safari/537.36" etag="aglTMG1QndRiyMi7CuwE" version="15.0.6" type="github">
  <diagram id="An_nH-asYlKzCCh9bmCA" name="Page-1">
    <mxGraphModel dx="1113" dy="760" grid="1" gridSize="10" guides="1" tooltips="1" connect="1" arrows="1" fold="1" page="1" pageScale="1" pageWidth="827" pageHeight="1169" math="0" shadow="0">
      <root>
        <mxCell id="0" />
        <mxCell id="1" parent="0" />
        <mxCell id="emTTxlsoseDI7qeD5jnB-1" value="" style="shape=umlBoundary;whiteSpace=wrap;html=1;" vertex="1" parent="1">
          <mxGeometry x="290" y="67.5" width="70" height="55" as="geometry" />
        </mxCell>
        <mxCell id="emTTxlsoseDI7qeD5jnB-2" value="" style="ellipse;shape=umlControl;whiteSpace=wrap;html=1;" vertex="1" parent="1">
          <mxGeometry x="490" y="60" width="60" height="70" as="geometry" />
        </mxCell>
        <mxCell id="emTTxlsoseDI7qeD5jnB-3" value="" style="ellipse;shape=umlEntity;whiteSpace=wrap;html=1;" vertex="1" parent="1">
          <mxGeometry x="680" y="65" width="60" height="60" as="geometry" />
        </mxCell>
        <mxCell id="emTTxlsoseDI7qeD5jnB-4" value="" style="ellipse;shape=umlControl;whiteSpace=wrap;html=1;" vertex="1" parent="1">
          <mxGeometry x="120" y="62.5" width="60" height="60" as="geometry" />
        </mxCell>
        <mxCell id="emTTxlsoseDI7qeD5jnB-13" value="" style="shape=umlActor;verticalLabelPosition=bottom;verticalAlign=top;html=1;" vertex="1" parent="1">
          <mxGeometry x="135" y="77.5" width="30" height="35" as="geometry" />
        </mxCell>
        <mxCell id="emTTxlsoseDI7qeD5jnB-16" value="" style="line;strokeWidth=1;fillColor=none;align=left;verticalAlign=middle;spacingTop=-1;spacingLeft=3;spacingRight=3;rotatable=0;labelPosition=right;points=[];portConstraint=eastwest;" vertex="1" parent="1">
          <mxGeometry x="130" y="150" width="40" height="8" as="geometry" />
        </mxCell>
        <mxCell id="emTTxlsoseDI7qeD5jnB-17" value="&lt;font style=&quot;vertical-align: inherit&quot;&gt;&lt;font style=&quot;vertical-align: inherit&quot;&gt;KH&lt;/font&gt;&lt;/font&gt;" style="text;html=1;align=center;verticalAlign=middle;resizable=0;points=[];autosize=1;strokeColor=none;fillColor=none;" vertex="1" parent="1">
          <mxGeometry x="130" y="138" width="30" height="20" as="geometry" />
        </mxCell>
        <mxCell id="emTTxlsoseDI7qeD5jnB-18" value="" style="line;strokeWidth=1;fillColor=none;align=left;verticalAlign=middle;spacingTop=-1;spacingLeft=3;spacingRight=3;rotatable=0;labelPosition=right;points=[];portConstraint=eastwest;" vertex="1" parent="1">
          <mxGeometry x="280" y="150" width="100" height="8" as="geometry" />
        </mxCell>
        <mxCell id="emTTxlsoseDI7qeD5jnB-20" value="&lt;font style=&quot;vertical-align: inherit&quot;&gt;&lt;font style=&quot;vertical-align: inherit&quot;&gt;&lt;font style=&quot;vertical-align: inherit&quot;&gt;&lt;font style=&quot;vertical-align: inherit&quot;&gt;GiaoDien DangKi&lt;/font&gt;&lt;/font&gt;&lt;/font&gt;&lt;/font&gt;" style="text;html=1;align=center;verticalAlign=middle;resizable=0;points=[];autosize=1;strokeColor=none;fillColor=none;" vertex="1" parent="1">
          <mxGeometry x="270" y="138" width="110" height="20" as="geometry" />
        </mxCell>
        <mxCell id="emTTxlsoseDI7qeD5jnB-21" value="" style="line;strokeWidth=1;fillColor=none;align=left;verticalAlign=middle;spacingTop=-1;spacingLeft=3;spacingRight=3;rotatable=0;labelPosition=right;points=[];portConstraint=eastwest;" vertex="1" parent="1">
          <mxGeometry x="465" y="150" width="120" height="8" as="geometry" />
        </mxCell>
        <mxCell id="emTTxlsoseDI7qeD5jnB-22" value="&lt;font style=&quot;vertical-align: inherit&quot;&gt;&lt;font style=&quot;vertical-align: inherit&quot;&gt;Dieukien&amp;nbsp; &amp;nbsp; &amp;nbsp; &amp;nbsp; DangKi&lt;/font&gt;&lt;/font&gt;" style="text;html=1;align=center;verticalAlign=middle;resizable=0;points=[];autosize=1;strokeColor=none;fillColor=none;" vertex="1" parent="1">
          <mxGeometry x="455" y="138" width="130" height="20" as="geometry" />
        </mxCell>
        <mxCell id="emTTxlsoseDI7qeD5jnB-29" value="" style="line;strokeWidth=1;fillColor=none;align=left;verticalAlign=middle;spacingTop=-1;spacingLeft=3;spacingRight=3;rotatable=0;labelPosition=right;points=[];portConstraint=eastwest;" vertex="1" parent="1">
          <mxGeometry x="670" y="150" width="100" height="8" as="geometry" />
        </mxCell>
        <mxCell id="emTTxlsoseDI7qeD5jnB-30" value="&lt;font style=&quot;vertical-align: inherit&quot;&gt;&lt;font style=&quot;vertical-align: inherit&quot;&gt;CSDL&lt;/font&gt;&lt;/font&gt;" style="text;html=1;align=center;verticalAlign=middle;resizable=0;points=[];autosize=1;strokeColor=none;fillColor=none;" vertex="1" parent="1">
          <mxGeometry x="660" y="138" width="50" height="20" as="geometry" />
        </mxCell>
        <mxCell id="emTTxlsoseDI7qeD5jnB-31" value="&lt;font style=&quot;vertical-align: inherit&quot;&gt;&lt;font style=&quot;vertical-align: inherit&quot;&gt;&lt;font style=&quot;vertical-align: inherit&quot;&gt;&lt;font style=&quot;vertical-align: inherit&quot;&gt;TaiKhoan&lt;/font&gt;&lt;/font&gt;&lt;/font&gt;&lt;/font&gt;" style="text;html=1;align=center;verticalAlign=middle;resizable=0;points=[];autosize=1;strokeColor=none;fillColor=none;" vertex="1" parent="1">
          <mxGeometry x="715" y="138" width="70" height="20" as="geometry" />
        </mxCell>
        <mxCell id="emTTxlsoseDI7qeD5jnB-32" value="" style="html=1;" vertex="1" parent="1">
          <mxGeometry x="60" y="420" width="750" height="220" as="geometry" />
        </mxCell>
        <mxCell id="emTTxlsoseDI7qeD5jnB-33" value="" style="html=1;points=[];perimeter=orthogonalPerimeter;fillColor=#fff2cc;strokeColor=#d6b656;" vertex="1" parent="1">
          <mxGeometry x="715" y="460" width="25" height="80" as="geometry" />
        </mxCell>
        <mxCell id="emTTxlsoseDI7qeD5jnB-34" value="" style="endArrow=none;dashed=1;html=1;exitX=0.5;exitY=0;exitDx=0;exitDy=0;exitPerimeter=0;" edge="1" parent="1" source="emTTxlsoseDI7qeD5jnB-33">
          <mxGeometry width="50" height="50" relative="1" as="geometry">
            <mxPoint x="440" y="440" as="sourcePoint" />
            <mxPoint x="720" y="159" as="targetPoint" />
          </mxGeometry>
        </mxCell>
        <mxCell id="emTTxlsoseDI7qeD5jnB-35" value="" style="endArrow=none;dashed=1;html=1;exitX=0.883;exitY=0.864;exitDx=0;exitDy=0;exitPerimeter=0;" edge="1" parent="1" source="emTTxlsoseDI7qeD5jnB-32">
          <mxGeometry width="50" height="50" relative="1" as="geometry">
            <mxPoint x="440" y="440" as="sourcePoint" />
            <mxPoint x="722" y="542" as="targetPoint" />
          </mxGeometry>
        </mxCell>
        <mxCell id="emTTxlsoseDI7qeD5jnB-36" value="" style="html=1;points=[];perimeter=orthogonalPerimeter;fillColor=#fff2cc;strokeColor=#d6b656;" vertex="1" parent="1">
          <mxGeometry x="530" y="380" width="20" height="170" as="geometry" />
        </mxCell>
        <mxCell id="emTTxlsoseDI7qeD5jnB-40" value="" style="html=1;points=[];perimeter=orthogonalPerimeter;" vertex="1" parent="1">
          <mxGeometry x="510" y="350" width="20" height="30" as="geometry" />
        </mxCell>
        <mxCell id="emTTxlsoseDI7qeD5jnB-41" value="" style="endArrow=none;dashed=1;html=1;entryX=0.538;entryY=1.008;entryDx=0;entryDy=0;entryPerimeter=0;" edge="1" parent="1" source="emTTxlsoseDI7qeD5jnB-40" target="emTTxlsoseDI7qeD5jnB-2">
          <mxGeometry width="50" height="50" relative="1" as="geometry">
            <mxPoint x="440" y="450" as="sourcePoint" />
            <mxPoint x="490" y="400" as="targetPoint" />
          </mxGeometry>
        </mxCell>
        <mxCell id="emTTxlsoseDI7qeD5jnB-42" value="" style="endArrow=none;dashed=1;html=1;entryX=0.497;entryY=1.025;entryDx=0;entryDy=0;entryPerimeter=0;" edge="1" parent="1" target="emTTxlsoseDI7qeD5jnB-36">
          <mxGeometry width="50" height="50" relative="1" as="geometry">
            <mxPoint x="540" y="620" as="sourcePoint" />
            <mxPoint x="490" y="400" as="targetPoint" />
          </mxGeometry>
        </mxCell>
        <mxCell id="emTTxlsoseDI7qeD5jnB-43" value="" style="html=1;points=[];perimeter=orthogonalPerimeter;fillColor=#fff2cc;strokeColor=#d6b656;" vertex="1" parent="1">
          <mxGeometry x="320" y="200" width="20" height="40" as="geometry" />
        </mxCell>
        <mxCell id="emTTxlsoseDI7qeD5jnB-45" value="" style="html=1;points=[];perimeter=orthogonalPerimeter;fillColor=#fff2cc;strokeColor=#d6b656;" vertex="1" parent="1">
          <mxGeometry x="320" y="335" width="20" height="60" as="geometry" />
        </mxCell>
        <mxCell id="emTTxlsoseDI7qeD5jnB-46" value="" style="html=1;points=[];perimeter=orthogonalPerimeter;fillColor=#fff2cc;strokeColor=#d6b656;" vertex="1" parent="1">
          <mxGeometry x="320" y="480" width="20" height="40" as="geometry" />
        </mxCell>
        <mxCell id="emTTxlsoseDI7qeD5jnB-47" value="" style="html=1;points=[];perimeter=orthogonalPerimeter;fillColor=#fff2cc;strokeColor=#d6b656;" vertex="1" parent="1">
          <mxGeometry x="320" y="540" width="20" height="40" as="geometry" />
        </mxCell>
        <mxCell id="emTTxlsoseDI7qeD5jnB-48" value="" style="html=1;points=[];perimeter=orthogonalPerimeter;fillColor=#fff2cc;strokeColor=#d6b656;" vertex="1" parent="1">
          <mxGeometry x="135" y="270" width="20" height="50" as="geometry" />
        </mxCell>
        <mxCell id="emTTxlsoseDI7qeD5jnB-49" value="" style="html=1;points=[];perimeter=orthogonalPerimeter;fillColor=#fff2cc;strokeColor=#d6b656;" vertex="1" parent="1">
          <mxGeometry x="135" y="470" width="20" height="40" as="geometry" />
        </mxCell>
        <mxCell id="emTTxlsoseDI7qeD5jnB-50" value="" style="html=1;points=[];perimeter=orthogonalPerimeter;fillColor=#fff2cc;strokeColor=#d6b656;" vertex="1" parent="1">
          <mxGeometry x="135" y="565" width="20" height="40" as="geometry" />
        </mxCell>
        <mxCell id="emTTxlsoseDI7qeD5jnB-51" value="" style="endArrow=none;dashed=1;html=1;" edge="1" parent="1">
          <mxGeometry width="50" height="50" relative="1" as="geometry">
            <mxPoint x="327" y="330" as="sourcePoint" />
            <mxPoint x="327" y="241" as="targetPoint" />
          </mxGeometry>
        </mxCell>
        <mxCell id="emTTxlsoseDI7qeD5jnB-52" value="" style="endArrow=none;dashed=1;html=1;" edge="1" parent="1">
          <mxGeometry width="50" height="50" relative="1" as="geometry">
            <mxPoint x="326" y="200" as="sourcePoint" />
            <mxPoint x="326" y="150" as="targetPoint" />
          </mxGeometry>
        </mxCell>
        <mxCell id="emTTxlsoseDI7qeD5jnB-53" value="" style="endArrow=none;dashed=1;html=1;entryX=0.482;entryY=1.059;entryDx=0;entryDy=0;entryPerimeter=0;" edge="1" parent="1" source="emTTxlsoseDI7qeD5jnB-46" target="emTTxlsoseDI7qeD5jnB-45">
          <mxGeometry width="50" height="50" relative="1" as="geometry">
            <mxPoint x="450" y="480" as="sourcePoint" />
            <mxPoint x="500" y="430" as="targetPoint" />
          </mxGeometry>
        </mxCell>
        <mxCell id="emTTxlsoseDI7qeD5jnB-56" value="" style="endArrow=none;dashed=1;html=1;entryX=0.424;entryY=1.059;entryDx=0;entryDy=0;entryPerimeter=0;" edge="1" parent="1" source="emTTxlsoseDI7qeD5jnB-47" target="emTTxlsoseDI7qeD5jnB-46">
          <mxGeometry width="50" height="50" relative="1" as="geometry">
            <mxPoint x="450" y="480" as="sourcePoint" />
            <mxPoint x="500" y="430" as="targetPoint" />
          </mxGeometry>
        </mxCell>
        <mxCell id="emTTxlsoseDI7qeD5jnB-57" value="" style="endArrow=none;dashed=1;html=1;" edge="1" parent="1">
          <mxGeometry width="50" height="50" relative="1" as="geometry">
            <mxPoint x="333" y="620" as="sourcePoint" />
            <mxPoint x="333" y="580" as="targetPoint" />
          </mxGeometry>
        </mxCell>
        <mxCell id="emTTxlsoseDI7qeD5jnB-58" value="" style="endArrow=none;dashed=1;html=1;exitX=0.615;exitY=-0.059;exitDx=0;exitDy=0;exitPerimeter=0;" edge="1" parent="1" source="emTTxlsoseDI7qeD5jnB-48">
          <mxGeometry width="50" height="50" relative="1" as="geometry">
            <mxPoint x="370" y="480" as="sourcePoint" />
            <mxPoint x="146" y="150" as="targetPoint" />
          </mxGeometry>
        </mxCell>
        <mxCell id="emTTxlsoseDI7qeD5jnB-59" value="" style="endArrow=none;dashed=1;html=1;entryX=0.482;entryY=1.094;entryDx=0;entryDy=0;entryPerimeter=0;" edge="1" parent="1" target="emTTxlsoseDI7qeD5jnB-48">
          <mxGeometry width="50" height="50" relative="1" as="geometry">
            <mxPoint x="145" y="470" as="sourcePoint" />
            <mxPoint x="420" y="430" as="targetPoint" />
          </mxGeometry>
        </mxCell>
        <mxCell id="emTTxlsoseDI7qeD5jnB-60" value="" style="endArrow=none;dashed=1;html=1;entryX=0.482;entryY=1.074;entryDx=0;entryDy=0;entryPerimeter=0;" edge="1" parent="1" target="emTTxlsoseDI7qeD5jnB-49">
          <mxGeometry width="50" height="50" relative="1" as="geometry">
            <mxPoint x="145" y="560" as="sourcePoint" />
            <mxPoint x="410" y="430" as="targetPoint" />
          </mxGeometry>
        </mxCell>
        <mxCell id="emTTxlsoseDI7qeD5jnB-63" value="" style="endArrow=classic;html=1;entryX=-0.062;entryY=0.118;entryDx=0;entryDy=0;entryPerimeter=0;" edge="1" parent="1" target="emTTxlsoseDI7qeD5jnB-43">
          <mxGeometry width="50" height="50" relative="1" as="geometry">
            <mxPoint x="150" y="206" as="sourcePoint" />
            <mxPoint x="410" y="330" as="targetPoint" />
          </mxGeometry>
        </mxCell>
        <mxCell id="emTTxlsoseDI7qeD5jnB-64" value="" style="endArrow=classic;html=1;entryX=1.129;entryY=-0.012;entryDx=0;entryDy=0;entryPerimeter=0;" edge="1" parent="1" target="emTTxlsoseDI7qeD5jnB-48">
          <mxGeometry width="50" height="50" relative="1" as="geometry">
            <mxPoint x="330" y="269" as="sourcePoint" />
            <mxPoint x="390" y="330" as="targetPoint" />
          </mxGeometry>
        </mxCell>
        <mxCell id="emTTxlsoseDI7qeD5jnB-65" value="" style="endArrow=classic;html=1;" edge="1" parent="1">
          <mxGeometry width="50" height="50" relative="1" as="geometry">
            <mxPoint x="150" y="340" as="sourcePoint" />
            <mxPoint x="320" y="340" as="targetPoint" />
          </mxGeometry>
        </mxCell>
        <mxCell id="emTTxlsoseDI7qeD5jnB-66" value="" style="endArrow=classic;html=1;entryX=-0.15;entryY=0.02;entryDx=0;entryDy=0;entryPerimeter=0;exitX=1.115;exitY=0.26;exitDx=0;exitDy=0;exitPerimeter=0;" edge="1" parent="1" source="emTTxlsoseDI7qeD5jnB-45" target="emTTxlsoseDI7qeD5jnB-40">
          <mxGeometry width="50" height="50" relative="1" as="geometry">
            <mxPoint x="340" y="380" as="sourcePoint" />
            <mxPoint x="390" y="330" as="targetPoint" />
          </mxGeometry>
        </mxCell>
        <mxCell id="emTTxlsoseDI7qeD5jnB-67" value="" style="endArrow=classic;html=1;exitX=1.144;exitY=0.02;exitDx=0;exitDy=0;exitPerimeter=0;entryX=1.203;entryY=-0.008;entryDx=0;entryDy=0;entryPerimeter=0;" edge="1" parent="1" source="emTTxlsoseDI7qeD5jnB-40" target="emTTxlsoseDI7qeD5jnB-36">
          <mxGeometry width="50" height="50" relative="1" as="geometry">
            <mxPoint x="340" y="380" as="sourcePoint" />
            <mxPoint x="670" y="365" as="targetPoint" />
            <Array as="points">
              <mxPoint x="590" y="350" />
              <mxPoint x="590" y="380" />
            </Array>
          </mxGeometry>
        </mxCell>
        <mxCell id="emTTxlsoseDI7qeD5jnB-82" value="&lt;font style=&quot;vertical-align: inherit&quot;&gt;&lt;font style=&quot;vertical-align: inherit&quot;&gt;5:Kiem tra dinh dang thong tin&lt;/font&gt;&lt;/font&gt;" style="edgeLabel;html=1;align=center;verticalAlign=middle;resizable=0;points=[];" vertex="1" connectable="0" parent="emTTxlsoseDI7qeD5jnB-67">
          <mxGeometry x="0.1289" y="-1" relative="1" as="geometry">
            <mxPoint as="offset" />
          </mxGeometry>
        </mxCell>
        <mxCell id="emTTxlsoseDI7qeD5jnB-68" value="" style="endArrow=classic;html=1;exitX=-0.062;exitY=-0.029;exitDx=0;exitDy=0;exitPerimeter=0;" edge="1" parent="1" source="emTTxlsoseDI7qeD5jnB-46" target="emTTxlsoseDI7qeD5jnB-49">
          <mxGeometry width="50" height="50" relative="1" as="geometry">
            <mxPoint x="313" y="470" as="sourcePoint" />
            <mxPoint x="330" y="350" as="targetPoint" />
            <Array as="points">
              <mxPoint x="290" y="479" />
            </Array>
          </mxGeometry>
        </mxCell>
        <mxCell id="emTTxlsoseDI7qeD5jnB-88" value="&lt;font style=&quot;vertical-align: inherit&quot;&gt;&lt;font style=&quot;vertical-align: inherit&quot;&gt;&lt;font style=&quot;vertical-align: inherit&quot;&gt;&lt;font style=&quot;vertical-align: inherit&quot;&gt;&amp;nbsp;8: Thong bao dang ki thanh cong ()&lt;/font&gt;&lt;/font&gt;&lt;/font&gt;&lt;/font&gt;" style="edgeLabel;html=1;align=center;verticalAlign=middle;resizable=0;points=[];" vertex="1" connectable="0" parent="emTTxlsoseDI7qeD5jnB-68">
          <mxGeometry x="0.6236" y="-1" relative="1" as="geometry">
            <mxPoint x="64" y="12" as="offset" />
          </mxGeometry>
        </mxCell>
        <mxCell id="emTTxlsoseDI7qeD5jnB-71" value="" style="endArrow=classic;html=1;entryX=0.953;entryY=0.022;entryDx=0;entryDy=0;entryPerimeter=0;" edge="1" parent="1" target="emTTxlsoseDI7qeD5jnB-50">
          <mxGeometry width="50" height="50" relative="1" as="geometry">
            <mxPoint x="310" y="566" as="sourcePoint" />
            <mxPoint x="310" y="310" as="targetPoint" />
          </mxGeometry>
        </mxCell>
        <mxCell id="emTTxlsoseDI7qeD5jnB-87" value="&lt;font style=&quot;vertical-align: inherit&quot;&gt;&lt;font style=&quot;vertical-align: inherit&quot;&gt;10: Dang ki khong thanh cong, nhap lai&lt;/font&gt;&lt;/font&gt;" style="edgeLabel;html=1;align=center;verticalAlign=middle;resizable=0;points=[];" vertex="1" connectable="0" parent="emTTxlsoseDI7qeD5jnB-71">
          <mxGeometry x="0.4417" relative="1" as="geometry">
            <mxPoint x="63" y="24" as="offset" />
          </mxGeometry>
        </mxCell>
        <mxCell id="emTTxlsoseDI7qeD5jnB-72" value="&lt;font style=&quot;vertical-align: inherit&quot;&gt;&lt;font style=&quot;vertical-align: inherit&quot;&gt;&lt;font style=&quot;vertical-align: inherit&quot;&gt;&lt;font style=&quot;vertical-align: inherit&quot;&gt;&lt;font style=&quot;vertical-align: inherit&quot;&gt;&lt;font style=&quot;vertical-align: inherit&quot;&gt;&lt;font style=&quot;vertical-align: inherit&quot;&gt;&lt;font style=&quot;vertical-align: inherit&quot;&gt;&lt;font style=&quot;vertical-align: inherit&quot;&gt;&lt;font style=&quot;vertical-align: inherit&quot;&gt;6: Neu dung, Luu vao Database&lt;/font&gt;&lt;/font&gt;&lt;/font&gt;&lt;/font&gt;&lt;/font&gt;&lt;/font&gt;&lt;/font&gt;&lt;/font&gt;&lt;/font&gt;&lt;/font&gt;" style="endArrow=classic;html=1;entryX=-0.094;entryY=0.029;entryDx=0;entryDy=0;entryPerimeter=0;" edge="1" parent="1" target="emTTxlsoseDI7qeD5jnB-33">
          <mxGeometry x="-0.6647" y="12" width="50" height="50" relative="1" as="geometry">
            <mxPoint x="553" y="462" as="sourcePoint" />
            <mxPoint x="310" y="310" as="targetPoint" />
            <Array as="points">
              <mxPoint x="650" y="462" />
              <mxPoint x="630" y="462" />
            </Array>
            <mxPoint as="offset" />
          </mxGeometry>
        </mxCell>
        <mxCell id="emTTxlsoseDI7qeD5jnB-73" value="" style="endArrow=classic;html=1;entryX=1.115;entryY=0.059;entryDx=0;entryDy=0;entryPerimeter=0;exitX=0.024;exitY=0.309;exitDx=0;exitDy=0;exitPerimeter=0;" edge="1" parent="1" source="emTTxlsoseDI7qeD5jnB-33" target="emTTxlsoseDI7qeD5jnB-46">
          <mxGeometry width="50" height="50" relative="1" as="geometry">
            <mxPoint x="715" y="490" as="sourcePoint" />
            <mxPoint x="310" y="310" as="targetPoint" />
          </mxGeometry>
        </mxCell>
        <mxCell id="emTTxlsoseDI7qeD5jnB-74" value="" style="endArrow=classic;html=1;exitX=-0.091;exitY=0.955;exitDx=0;exitDy=0;exitPerimeter=0;" edge="1" parent="1" source="emTTxlsoseDI7qeD5jnB-36">
          <mxGeometry width="50" height="50" relative="1" as="geometry">
            <mxPoint x="538" y="540" as="sourcePoint" />
            <mxPoint x="350" y="540" as="targetPoint" />
            <Array as="points">
              <mxPoint x="340" y="540" />
            </Array>
          </mxGeometry>
        </mxCell>
        <mxCell id="emTTxlsoseDI7qeD5jnB-85" value="&lt;font style=&quot;vertical-align: inherit&quot;&gt;&lt;font style=&quot;vertical-align: inherit&quot;&gt;&lt;font style=&quot;vertical-align: inherit&quot;&gt;&lt;font style=&quot;vertical-align: inherit&quot;&gt;&lt;font style=&quot;vertical-align: inherit&quot;&gt;&lt;font style=&quot;vertical-align: inherit&quot;&gt;7: Thong bao Dang ki thanh cong&lt;/font&gt;&lt;/font&gt;&lt;/font&gt;&lt;/font&gt;&lt;/font&gt;&lt;/font&gt;" style="edgeLabel;html=1;align=center;verticalAlign=middle;resizable=0;points=[];" vertex="1" connectable="0" parent="emTTxlsoseDI7qeD5jnB-74">
          <mxGeometry x="0.2997" relative="1" as="geometry">
            <mxPoint x="124" y="-20" as="offset" />
          </mxGeometry>
        </mxCell>
        <mxCell id="emTTxlsoseDI7qeD5jnB-86" value="&lt;font style=&quot;vertical-align: inherit&quot;&gt;&lt;font style=&quot;vertical-align: inherit&quot;&gt;&lt;font style=&quot;vertical-align: inherit&quot;&gt;&lt;font style=&quot;vertical-align: inherit&quot;&gt;9: Neu sai yeu cau nhap lai ()&lt;/font&gt;&lt;/font&gt;&lt;/font&gt;&lt;/font&gt;" style="edgeLabel;html=1;align=center;verticalAlign=middle;resizable=0;points=[];" vertex="1" connectable="0" parent="emTTxlsoseDI7qeD5jnB-74">
          <mxGeometry x="0.4486" y="-1" relative="1" as="geometry">
            <mxPoint x="45" y="20" as="offset" />
          </mxGeometry>
        </mxCell>
        <mxCell id="emTTxlsoseDI7qeD5jnB-76" value="&lt;font style=&quot;vertical-align: inherit&quot;&gt;&lt;font style=&quot;vertical-align: inherit&quot;&gt;1 :Yeu cau dang ki ()&lt;/font&gt;&lt;/font&gt;" style="text;html=1;align=center;verticalAlign=middle;resizable=0;points=[];autosize=1;strokeColor=none;fillColor=none;" vertex="1" parent="1">
          <mxGeometry x="165" y="190" width="130" height="20" as="geometry" />
        </mxCell>
        <mxCell id="emTTxlsoseDI7qeD5jnB-77" value="&lt;font style=&quot;vertical-align: inherit&quot;&gt;&lt;font style=&quot;vertical-align: inherit&quot;&gt;&lt;font style=&quot;vertical-align: inherit&quot;&gt;&lt;font style=&quot;vertical-align: inherit&quot;&gt;&amp;nbsp; &amp;nbsp; &amp;nbsp; &amp;nbsp; &amp;nbsp; &amp;nbsp; &amp;nbsp; &amp;nbsp; &amp;nbsp; &amp;nbsp; &amp;nbsp; &amp;nbsp; &amp;nbsp; &amp;nbsp; &amp;nbsp; &amp;nbsp; &amp;nbsp; &amp;nbsp; 2: Yeu cau nhap thong tin ()&lt;/font&gt;&lt;/font&gt;&lt;/font&gt;&lt;/font&gt;" style="text;html=1;align=center;verticalAlign=middle;resizable=0;points=[];autosize=1;strokeColor=none;fillColor=none;" vertex="1" parent="1">
          <mxGeometry x="40" y="280" width="280" height="20" as="geometry" />
        </mxCell>
        <mxCell id="emTTxlsoseDI7qeD5jnB-80" value="&lt;font style=&quot;vertical-align: inherit&quot;&gt;&lt;font style=&quot;vertical-align: inherit&quot;&gt;&lt;font style=&quot;vertical-align: inherit&quot;&gt;&lt;font style=&quot;vertical-align: inherit&quot;&gt;&lt;font style=&quot;vertical-align: inherit&quot;&gt;&lt;font style=&quot;vertical-align: inherit&quot;&gt;&lt;font style=&quot;vertical-align: inherit&quot;&gt;&lt;font style=&quot;vertical-align: inherit&quot;&gt;&lt;font style=&quot;vertical-align: inherit&quot;&gt;&lt;font style=&quot;vertical-align: inherit&quot;&gt;&lt;font style=&quot;vertical-align: inherit&quot;&gt;&lt;font style=&quot;vertical-align: inherit&quot;&gt;3: Nhap cac thong tin ()&lt;/font&gt;&lt;/font&gt;&lt;/font&gt;&lt;/font&gt;&lt;/font&gt;&lt;/font&gt;&lt;/font&gt;&lt;/font&gt;&lt;/font&gt;&lt;/font&gt;&lt;/font&gt;&lt;/font&gt;" style="text;html=1;align=center;verticalAlign=middle;resizable=0;points=[];autosize=1;strokeColor=none;fillColor=none;" vertex="1" parent="1">
          <mxGeometry x="150" y="310" width="140" height="20" as="geometry" />
        </mxCell>
        <mxCell id="emTTxlsoseDI7qeD5jnB-81" value="&lt;font style=&quot;vertical-align: inherit&quot;&gt;&lt;font style=&quot;vertical-align: inherit&quot;&gt;&amp;nbsp; &amp;nbsp; &amp;nbsp; &amp;nbsp; &amp;nbsp; &amp;nbsp; &amp;nbsp; &amp;nbsp; &amp;nbsp; &amp;nbsp; &amp;nbsp; &amp;nbsp; &amp;nbsp; &amp;nbsp; &amp;nbsp; &amp;nbsp;4::Kiem tra dinh dang thong tin ()&lt;/font&gt;&lt;/font&gt;" style="text;html=1;align=center;verticalAlign=middle;resizable=0;points=[];autosize=1;strokeColor=none;fillColor=none;" vertex="1" parent="1">
          <mxGeometry x="235" y="330" width="290" height="20" as="geometry" />
        </mxCell>
      </root>
    </mxGraphModel>
  </diagram>
</mxfile>
